<svg width="20" height="20" viewBox="0 0 20 20" fill="none" xmlns="http://www.w3.org/2000/svg">
<path fill-rule="evenodd" clip-rule="evenodd" d="M10.24 3.33702L10.0015 3.33301C6.55074 3.33301 3.44089 5.76891 1.71727 9.75454C1.64958 9.91104 1.64958 10.0883 1.71727 10.2448L1.8367 10.5137C3.53849 14.244 6.47937 16.5533 9.75967 16.6623L9.99817 16.6663C13.4489 16.6663 16.5588 14.2304 18.2824 10.2448C18.3509 10.0863 18.35 9.90667 18.2799 9.74888L18.1639 9.4877C16.4579 5.75044 13.5158 3.4459 10.24 3.33702ZM10.0073 4.5742L10.2065 4.57848L10.429 4.59006C13.0933 4.77871 15.5436 6.75429 17.024 9.99894L17.0163 10.019C15.4988 13.3334 12.964 15.3207 10.2156 15.4205L10.0032 15.4237L9.78896 15.4208L9.56702 15.4093C6.98544 15.2264 4.60516 13.3617 3.1158 10.2994L2.97485 9.99894L3.10533 9.72151C4.67583 6.4773 7.24275 4.5749 10.0073 4.5742ZM9.99942 6.7609C8.19908 6.7609 6.74025 8.21063 6.74025 9.99985C6.74025 11.7884 8.19924 13.238 9.99942 13.238C11.7997 13.238 13.2594 11.7883 13.2594 9.99985C13.2594 8.21073 11.7999 6.7609 9.99942 6.7609ZM9.99942 8.00282C11.1096 8.00282 12.0094 8.89668 12.0094 9.99984C12.0094 11.1023 11.1095 11.996 9.99942 11.996C8.8896 11.996 7.99025 11.1025 7.99025 9.99984C7.99025 8.89646 8.8895 8.00282 9.99942 8.00282Z" fill="#9CA3AF"/>
</svg>
